<?xml version="1.0" standalone="no"?>
<!DOCTYPE svg PUBLIC "-//W3C//DTD SVG 20010904//EN"
 "http://www.w3.org/TR/2001/REC-SVG-20010904/DTD/svg10.dtd">
<svg version="1.0" xmlns="http://www.w3.org/2000/svg"
 width="96.000000pt" height="96.000000pt" viewBox="0 0 96.000000 96.000000"
 preserveAspectRatio="xMidYMid meet">

<g transform="translate(0.000000,96.000000) scale(0.100000,-0.100000)"
fill="#000000" stroke="none">
<path d="M7 953 c-20 -19 11 -56 210 -255 l218 -218 -219 -219 c-219 -219
-242 -250 -192 -259 14 -3 81 58 237 214 l219 219 219 -219 c219 -219 250
-242 259 -192 3 14 -58 81 -214 237 l-219 219 219 219 c156 156 217 223 214
237 -9 50 -40 27 -259 -192 l-219 -219 -218 218 c-199 199 -236 230 -255 210z"/>
</g>
</svg>
