<?xml version="1.0" standalone="no"?>
<!DOCTYPE svg PUBLIC "-//W3C//DTD SVG 20010904//EN"
 "http://www.w3.org/TR/2001/REC-SVG-20010904/DTD/svg10.dtd">
<svg version="1.0" xmlns="http://www.w3.org/2000/svg"
 width="96.000000pt" height="96.000000pt" viewBox="0 0 96.000000 96.000000"
 preserveAspectRatio="xMidYMid meet">

<g transform="translate(0.000000,96.000000) scale(0.100000,-0.100000)"
fill="#000000" stroke="none">
<path d="M254 926 c-31 -31 -34 -39 -34 -94 0 -79 -13 -92 -92 -92 -55 0 -63
-3 -94 -34 -53 -53 -43 -124 25 -174 22 -16 31 -31 31 -52 0 -21 -9 -36 -31
-52 -68 -50 -78 -121 -25 -174 31 -31 39 -34 94 -34 79 0 92 -13 92 -92 0 -55
3 -63 34 -94 53 -53 124 -43 174 25 31 43 73 43 104 0 50 -68 121 -78 174 -25
31 31 34 39 34 94 0 79 13 92 92 92 55 0 63 3 94 34 53 53 43 124 -25 174 -22
16 -31 31 -31 52 0 21 9 36 31 52 68 50 78 121 25 174 -31 31 -39 34 -94 34
-79 0 -92 13 -92 92 0 55 -3 63 -34 94 -53 53 -124 43 -174 -25 -16 -22 -31
-31 -52 -31 -21 0 -36 9 -52 31 -50 68 -121 78 -174 25z m137 -71 c41 -38 54
-45 89 -45 35 0 48 7 91 47 45 42 53 46 77 37 25 -9 27 -14 32 -81 4 -62 9
-77 33 -100 23 -24 38 -29 100 -33 67 -5 72 -7 81 -32 9 -24 5 -32 -37 -77
-40 -43 -47 -56 -47 -91 0 -35 7 -48 47 -91 42 -45 46 -53 37 -77 -9 -25 -14
-27 -81 -32 -62 -4 -77 -9 -100 -33 -24 -23 -29 -38 -33 -100 -5 -67 -7 -72
-32 -81 -24 -9 -32 -5 -77 37 -43 40 -56 47 -91 47 -35 0 -48 -7 -91 -47 -45
-42 -53 -46 -77 -37 -25 9 -27 14 -32 81 -4 62 -9 77 -33 100 -23 24 -38 29
-100 33 -67 5 -72 7 -81 32 -9 24 -5 32 37 77 40 43 47 56 47 91 0 35 -7 48
-47 91 -42 45 -46 53 -37 77 9 25 14 27 83 32 67 5 75 8 102 38 26 29 29 40
29 97 0 50 4 66 18 74 29 18 43 12 93 -34z"/>
<path d="M395 671 c-168 -78 -164 -314 7 -385 134 -56 288 48 288 194 0 150
-160 253 -295 191z m155 -61 c45 -23 80 -80 80 -130 0 -76 -74 -150 -150 -150
-76 0 -150 74 -150 150 0 48 35 107 78 129 48 26 93 26 142 1z"/>
</g>
</svg>
