<?xml version="1.0" standalone="no"?>
<!DOCTYPE svg PUBLIC "-//W3C//DTD SVG 20010904//EN"
 "http://www.w3.org/TR/2001/REC-SVG-20010904/DTD/svg10.dtd">
<svg version="1.0" xmlns="http://www.w3.org/2000/svg"
 width="96.000000pt" height="96.000000pt" viewBox="0 0 96.000000 96.000000"
 preserveAspectRatio="xMidYMid meet">

<g transform="translate(0.000000,96.000000) scale(0.100000,-0.100000)"
fill="#000000" stroke="none">
<path d="M450 913 c-27 -10 -450 -437 -450 -454 0 -21 26 -32 48 -20 9 6 107
100 217 210 110 111 207 201 215 201 8 0 105 -90 215 -201 110 -110 208 -204
217 -210 22 -12 48 -1 48 20 0 9 -98 114 -217 233 -219 219 -246 239 -293 221z"/>
<path d="M127 424 c-13 -13 -8 -359 5 -372 18 -18 262 -17 276 1 7 8 13 69 14
148 l3 134 55 0 55 0 3 -134 c1 -79 7 -140 14 -148 16 -19 261 -19 277 1 8 9
11 69 9 192 l-3 179 -25 0 -25 0 -3 -162 -2 -163 -90 0 -90 0 0 116 c0 161
-14 183 -120 183 -106 0 -120 -22 -120 -183 l0 -116 -90 0 -90 0 -2 163 c-3
154 -4 162 -23 165 -12 2 -24 0 -28 -4z"/>
</g>
</svg>
