<?xml version="1.0" standalone="no"?>
<!DOCTYPE svg PUBLIC "-//W3C//DTD SVG 20010904//EN"
 "http://www.w3.org/TR/2001/REC-SVG-20010904/DTD/svg10.dtd">
<svg version="1.0" xmlns="http://www.w3.org/2000/svg"
 width="81.000000pt" height="81.000000pt" viewBox="0 0 81.000000 81.000000"
 preserveAspectRatio="xMidYMid meet">

<g transform="translate(0.000000,81.000000) scale(0.100000,-0.100000)"
fill="#000000" stroke="none">
<path d="M306 800 c-65 -17 -155 -71 -198 -119 -22 -25 -55 -75 -72 -111 -46
-96 -46 -234 0 -330 46 -95 101 -153 192 -197 72 -36 81 -38 172 -38 91 0 100
2 172 38 91 44 146 102 192 197 28 59 31 74 31 165 0 91 -3 106 -31 165 -69
144 -190 228 -340 235 -44 3 -96 0 -118 -5z m211 -82 c79 -29 162 -112 191
-191 83 -220 -78 -457 -308 -457 -89 0 -164 32 -231 99 -135 135 -135 337 0
472 96 96 223 124 348 77z"/>
<path d="M362 658 c-20 -20 -14 -56 13 -74 23 -15 27 -15 50 0 27 18 33 54 13
74 -15 15 -61 15 -76 0z"/>
<path d="M381 496 c-8 -9 -11 -63 -9 -167 l3 -154 25 0 25 0 3 154 c2 146 -3
181 -28 181 -4 0 -13 -6 -19 -14z"/>
</g>
</svg>
