<?xml version="1.0" standalone="no"?>
<!DOCTYPE svg PUBLIC "-//W3C//DTD SVG 20010904//EN"
 "http://www.w3.org/TR/2001/REC-SVG-20010904/DTD/svg10.dtd">
<svg version="1.0" xmlns="http://www.w3.org/2000/svg"
 width="96.000000pt" height="96.000000pt" viewBox="0 0 96.000000 96.000000"
 preserveAspectRatio="xMidYMid meet">

<g transform="translate(0.000000,96.000000) scale(0.100000,-0.100000)"
fill="#000000" stroke="none">
<path d="M334 936 c-83 -27 -141 -65 -204 -132 -60 -65 -84 -105 -109 -188
-53 -173 -3 -356 132 -483 67 -63 107 -86 191 -112 127 -39 278 -19 388 51 61
38 149 134 176 190 54 112 66 241 31 354 -26 84 -49 124 -112 191 -130 138
-316 187 -493 129z m293 -64 c197 -75 311 -290 259 -492 -81 -317 -470 -425
-701 -195 -270 270 -66 731 315 711 41 -2 98 -13 127 -24z"/>
<path d="M474 787 c-22 -19 -27 -34 -33 -89 -7 -72 -23 -98 -74 -125 -27 -13
-30 -13 -44 6 -11 16 -25 21 -63 21 -53 0 -65 -9 -55 -40 4 -14 15 -20 36 -20
l29 0 0 -120 0 -120 -29 0 c-34 0 -45 -12 -36 -40 5 -16 15 -20 54 -20 29 0
53 6 60 14 10 12 20 12 68 -1 38 -10 90 -14 153 -11 88 3 100 6 133 31 59 45
71 77 71 194 1 99 0 102 -29 132 -16 17 -46 36 -67 42 l-38 10 0 55 c0 45 -4
59 -25 79 -31 32 -75 32 -111 2z m76 -104 c6 -71 16 -84 77 -102 58 -16 66
-36 58 -133 -6 -68 -11 -85 -35 -112 -27 -29 -33 -31 -110 -35 -57 -2 -102 2
-146 14 l-64 17 0 83 c0 82 0 83 28 88 77 16 139 96 149 192 5 44 9 55 22 53
12 -2 17 -19 21 -65z"/>
</g>
</svg>
