<?xml version="1.0" standalone="no"?>
<!DOCTYPE svg PUBLIC "-//W3C//DTD SVG 20010904//EN"
 "http://www.w3.org/TR/2001/REC-SVG-20010904/DTD/svg10.dtd">
<svg version="1.0" xmlns="http://www.w3.org/2000/svg"
 width="96.000000pt" height="96.000000pt" viewBox="0 0 96.000000 96.000000"
 preserveAspectRatio="xMidYMid meet">

<g transform="translate(0.000000,96.000000) scale(0.100000,-0.100000)"
fill="#000000" stroke="none">
<path d="M29 931 l-29 -29 0 -332 0 -332 29 -29 c26 -26 36 -29 90 -29 l60 0
3 -87 c3 -73 6 -88 20 -91 10 -2 70 37 137 87 l120 91 221 0 222 0 29 29 29
29 0 332 0 332 -29 29 -29 29 -422 0 -422 0 -29 -29z m859 -43 c17 -17 17
-619 0 -636 -9 -9 -74 -12 -230 -12 l-219 0 -99 -75 -100 -76 0 64 c0 36 -5
68 -12 75 -7 7 -40 12 -78 12 -38 0 -71 5 -78 12 -17 17 -17 619 0 636 17 17
799 17 816 0z"/>
<path d="M184 675 c-4 -8 -4 -22 0 -30 5 -13 44 -15 298 -13 l293 3 0 25 0 25
-293 3 c-254 2 -293 0 -298 -13z"/>
<path d="M184 495 c-4 -8 -4 -22 0 -30 5 -13 38 -15 238 -13 l233 3 0 25 0 25
-233 3 c-200 2 -233 0 -238 -13z"/>
</g>
</svg>
