<?xml version="1.0" standalone="no"?>
<!DOCTYPE svg PUBLIC "-//W3C//DTD SVG 20010904//EN"
 "http://www.w3.org/TR/2001/REC-SVG-20010904/DTD/svg10.dtd">
<svg version="1.0" xmlns="http://www.w3.org/2000/svg"
 width="96.000000pt" height="96.000000pt" viewBox="0 0 96.000000 96.000000"
 preserveAspectRatio="xMidYMid meet">

<g transform="translate(0.000000,96.000000) scale(0.100000,-0.100000)"
fill="#000000" stroke="none">
<path d="M285 946 c-68 -22 -121 -53 -170 -103 -201 -200 -125 -541 142 -644
111 -42 270 -22 357 45 l33 25 134 -135 c95 -96 140 -134 154 -132 48 7 27 42
-109 177 l-135 134 25 33 c93 121 88 328 -10 457 -96 125 -279 188 -421 143z
m239 -75 c66 -29 135 -97 167 -166 80 -167 -4 -380 -174 -443 -87 -33 -185
-30 -262 7 -69 32 -137 101 -166 166 -78 177 20 389 210 450 59 19 165 13 225
-14z"/>
</g>
</svg>
