<?xml version="1.0" standalone="no"?>
<!DOCTYPE svg PUBLIC "-//W3C//DTD SVG 20010904//EN"
 "http://www.w3.org/TR/2001/REC-SVG-20010904/DTD/svg10.dtd">
<svg version="1.0" xmlns="http://www.w3.org/2000/svg"
 width="1024.000000pt" height="1024.000000pt" viewBox="0 0 1024.000000 1024.000000"
 preserveAspectRatio="xMidYMid meet">
<metadata>
Created by potrace 1.14, written by Peter Selinger 2001-2017
</metadata>
<g transform="translate(0.000000,1024.000000) scale(0.100000,-0.100000)"
fill="#000000" stroke="none">
<path d="M0 5120 l0 -5120 5120 0 5120 0 0 5120 0 5120 -5120 0 -5120 0 0
-5120z m4507 3625 c62 -19 98 -46 122 -93 40 -81 43 -122 27 -413 -19 -352
-23 -441 -41 -919 -8 -217 -24 -624 -35 -905 -11 -280 -29 -762 -40 -1070 -11
-308 -24 -677 -30 -820 -5 -143 -12 -348 -15 -455 -8 -259 -20 -370 -43 -423
l-19 -44 -129 -6 c-167 -9 -1779 -9 -1907 0 -93 6 -97 7 -97 29 0 13 49 173
109 356 197 601 414 1275 796 2473 575 1801 707 2208 731 2256 20 40 64 47
305 48 165 1 227 -3 266 -14z m1036 -4 c84 -27 147 -117 201 -286 14 -44 62
-195 106 -335 45 -140 96 -302 115 -360 160 -511 157 -503 204 -542 17 -15 38
-50 51 -86 27 -73 10 -79 166 62 294 264 647 501 963 645 123 57 279 119 361
146 30 10 57 19 59 21 2 2 -9 20 -24 39 -33 44 -149 141 -370 311 -179 137
-226 188 -250 267 -24 80 -21 91 27 113 41 18 82 19 1103 19 1000 0 1063 -1
1107 -18 63 -24 104 -72 117 -139 19 -89 7 -127 -169 -533 -28 -66 -105 -250
-171 -410 -66 -159 -141 -339 -166 -400 -92 -221 -145 -352 -182 -450 -51
-134 -94 -217 -137 -265 -30 -33 -43 -40 -75 -40 -77 0 -144 104 -212 330
-101 330 -219 706 -226 713 -19 20 -349 -143 -521 -257 -253 -169 -416 -339
-567 -591 -181 -303 -252 -612 -240 -1040 12 -439 81 -775 312 -1524 117 -379
128 -432 105 -498 l-11 -30 -127 -6 c-165 -9 -1776 -9 -1875 -1 l-76 7 -5 51
c-3 28 -10 173 -16 321 -5 149 -35 911 -65 1695 -87 2285 -106 2818 -103 2945
l3 119 40 13 c54 16 494 12 548 -6z m-4023 -6616 l0 -205 -130 0 -130 0 0
-125 0 -125 120 0 120 0 0 -200 0 -200 -120 0 -120 0 0 -340 0 -340 -165 0
-165 0 0 870 0 870 295 0 295 0 0 -205z m730 0 l0 -205 -140 0 -140 0 0 -125
0 -125 125 0 125 0 0 -200 0 -200 -125 0 -125 0 0 -130 0 -130 140 0 140 0 0
-210 0 -210 -307 2 -308 3 -3 868 -2 867 310 0 310 0 0 -205z m642 168 c120
-57 195 -157 240 -322 28 -102 31 -338 6 -421 -25 -79 -76 -159 -125 -195 -23
-16 -42 -33 -42 -37 -1 -5 53 -166 119 -359 66 -193 120 -356 120 -360 0 -6
-77 -8 -176 -7 l-177 3 -69 250 c-38 138 -75 287 -84 333 -29 160 -33 135 -33
-231 l-1 -357 -162 2 -163 3 -3 868 -2 869 242 -4 243 -3 67 -32z m800 -303
c49 -184 103 -400 121 -480 35 -160 44 -155 28 15 -6 61 -11 267 -11 458 l0
347 155 0 155 0 0 -870 0 -871 -157 3 -156 3 -29 110 c-15 61 -60 229 -99 375
-40 146 -82 308 -95 360 -18 71 -22 83 -19 45 3 -27 8 -240 11 -472 l7 -423
-162 0 -161 0 0 870 0 870 162 -2 161 -3 89 -335z m1148 135 l0 -205 -130 0
-130 0 0 -125 0 -125 120 0 120 0 0 -200 0 -200 -120 0 -120 0 -2 -337 -3
-338 -162 -3 -163 -2 0 870 0 870 295 0 295 0 0 -205z m753 -643 c71 -466 130
-856 130 -867 2 -19 -5 -20 -162 -23 -91 -1 -168 1 -172 5 -4 5 -13 56 -20
116 l-13 107 -107 0 -107 0 -6 -28 c-3 -15 -8 -54 -11 -87 -4 -33 -9 -72 -11
-88 l-6 -27 -171 2 c-156 3 -172 5 -171 20 1 10 68 400 150 868 l148 850 200
0 201 0 128 -848z m517 543 l0 -305 75 0 75 0 0 305 0 305 175 0 175 0 -2
-867 -3 -868 -170 0 -170 0 -3 348 -2 347 -75 0 -75 0 -2 -347 -3 -348 -162
-3 -163 -2 0 870 0 870 165 0 165 0 0 -305z m1088 295 c207 -48 325 -235 339
-535 6 -134 -9 -226 -48 -310 -23 -49 -87 -123 -123 -142 -18 -10 -13 -30 102
-367 67 -196 122 -361 122 -366 0 -6 -66 -10 -174 -10 l-174 0 -11 33 c-26 82
-140 520 -153 582 -12 66 -13 51 -18 -270 l-5 -340 -165 0 -165 0 -3 868 -2
867 217 0 c120 0 237 -5 261 -10z m1072 -195 l0 -205 -140 0 -140 0 0 -125 0
-125 130 0 130 0 0 -200 0 -200 -130 0 -130 0 0 -130 0 -130 140 0 140 0 0
-210 0 -210 -305 0 -305 0 0 870 0 870 305 0 305 0 0 -205z m632 176 c74 -29
156 -104 195 -178 110 -207 118 -525 18 -683 -13 -21 -46 -57 -74 -81 l-51
-45 120 -348 c66 -192 120 -355 120 -363 0 -10 -35 -13 -175 -13 l-174 0 -10
38 c-5 20 -39 147 -75 282 -35 135 -71 274 -78 310 -12 60 -13 39 -18 -280
l-5 -345 -162 -3 -163 -2 0 871 0 871 238 -4 c218 -3 241 -6 294 -27z"/>
<path d="M2670 1731 c0 -206 0 -211 20 -211 39 0 76 29 105 82 26 47 30 63 30
138 0 126 -35 183 -121 197 l-34 6 0 -212z"/>
<path d="M5251 1855 c-16 -219 -49 -536 -66 -642 l-6 -33 71 0 c38 0 70 2 70
5 0 2 -6 53 -14 112 -8 59 -20 178 -26 263 -15 201 -27 320 -29 295z"/>
<path d="M7060 1730 c0 -193 1 -210 18 -210 33 0 79 38 103 86 19 41 24 65 24
139 0 77 -3 95 -23 128 -25 39 -67 67 -102 67 -20 0 -20 -5 -20 -210z"/>
<path d="M8700 1730 c0 -234 -1 -232 66 -191 72 44 109 217 66 314 -22 49 -69
87 -109 87 l-23 0 0 -210z"/>
</g>
</svg>
